<mxfile host="65bd71144e" scale="2" border="0">
    <diagram id="-t9OUlRj6Mb3m12M3T90" name="Page-1">
        <mxGraphModel dx="1714" dy="598" grid="1" gridSize="10" guides="1" tooltips="1" connect="1" arrows="1" fold="1" page="1" pageScale="1" pageWidth="827" pageHeight="1169" math="0" shadow="0">
            <root>
                <mxCell id="0"/>
                <mxCell id="1" parent="0"/>
                <mxCell id="11" style="edgeStyle=none;html=1;entryX=0.888;entryY=0.5;entryDx=0;entryDy=0;entryPerimeter=0;" parent="1" source="2" edge="1">
                    <mxGeometry relative="1" as="geometry">
                        <mxPoint x="337.9200000000001" y="383" as="targetPoint"/>
                    </mxGeometry>
                </mxCell>
                <mxCell id="33" value="Pub" style="edgeLabel;html=1;align=center;verticalAlign=middle;resizable=0;points=[];" parent="11" vertex="1" connectable="0">
                    <mxGeometry x="-0.4923" relative="1" as="geometry">
                        <mxPoint x="19" as="offset"/>
                    </mxGeometry>
                </mxCell>
                <mxCell id="13" style="edgeStyle=none;html=1;entryX=-0.07;entryY=0.5;entryDx=0;entryDy=0;entryPerimeter=0;" parent="1" source="2" target="9" edge="1">
                    <mxGeometry relative="1" as="geometry">
                        <Array as="points">
                            <mxPoint x="214" y="261"/>
                        </Array>
                    </mxGeometry>
                </mxCell>
                <mxCell id="31" value="State" style="edgeLabel;html=1;align=center;verticalAlign=middle;resizable=0;points=[];" parent="13" vertex="1" connectable="0">
                    <mxGeometry x="0.2712" relative="1" as="geometry">
                        <mxPoint as="offset"/>
                    </mxGeometry>
                </mxCell>
                <mxCell id="35" value="Az Monitor Exporter" style="edgeStyle=none;dashed=1;" edge="1" parent="1" source="2" target="34">
                    <mxGeometry x="0.0031" relative="1" as="geometry">
                        <Array as="points">
                            <mxPoint x="214" y="480"/>
                        </Array>
                        <mxPoint as="offset"/>
                    </mxGeometry>
                </mxCell>
                <mxCell id="40" value="Http request" style="edgeStyle=none;entryX=0.517;entryY=0;entryDx=0;entryDy=0;entryPerimeter=0;" edge="1" parent="1" source="2" target="38">
                    <mxGeometry relative="1" as="geometry"/>
                </mxCell>
                <mxCell id="41" value="Http request" style="edgeStyle=none;entryX=0.419;entryY=-0.005;entryDx=0;entryDy=0;entryPerimeter=0;" edge="1" parent="1" source="2" target="39">
                    <mxGeometry relative="1" as="geometry"/>
                </mxCell>
                <mxCell id="2" value="Credit Api" style="aspect=fixed;html=1;points=[];align=center;image;fontSize=12;image=img/lib/azure2/other/Worker_Container_App.svg;" parent="1" vertex="1">
                    <mxGeometry x="40" y="350" width="68" height="66" as="geometry"/>
                </mxCell>
                <mxCell id="48" value="OTLP" style="edgeStyle=none;entryX=1;entryY=0.5;entryDx=0;entryDy=0;dashed=1;" edge="1" parent="1" source="7" target="20">
                    <mxGeometry relative="1" as="geometry"/>
                </mxCell>
                <mxCell id="7" value="Sidescars" style="shape=image;verticalLabelPosition=bottom;labelBackgroundColor=default;verticalAlign=top;aspect=fixed;imageAspect=0;image=data:image/svg+xml,PHN2ZyB4bWxuczp4bGluaz0iaHR0cDovL3d3dy53My5vcmcvMTk5OS94bGluayIgeG1sbnM9Imh0dHA6Ly93d3cudzMub3JnLzIwMDAvc3ZnIiB2ZXJzaW9uPSIxLjEiIHZpZXdCb3g9IjAgMCAzNjcgMjcwIiBoZWlnaHQ9IjI3MHB4IiB3aWR0aD0iMzY3cHgiPgogICAgCiAgICA8dGl0bGU+QXJ0Ym9hcmQ8L3RpdGxlPgogICAgPGRlc2M+Q3JlYXRlZCB3aXRoIFNrZXRjaC48L2Rlc2M+CiAgICA8ZGVmcy8+CiAgICA8ZyBmaWxsLXJ1bGU9ImV2ZW5vZGQiIGZpbGw9Im5vbmUiIHN0cm9rZS13aWR0aD0iMSIgc3Ryb2tlPSJub25lIiBpZD0iQXJ0Ym9hcmQiPgogICAgICAgIDxwYXRoIGZpbGw9IiMwRDIxOTIiIGlkPSJkYXByIiBkPSJNODkuNzkxNzExOSwxOTMuNTA4NzYxIEw2Mi45MDAwMzkyLDE5My41MDg3NjEgTDYyLjkwMDAzOTIsMTg1LjA2NDEyIEM2MC4zMzExMDY0LDE4OC4yODg5NSA1Ny43MzQ4ODM1LDE5MC42MzkyMTUgNTUuMTExMjkyNiwxOTIuMTE0OTg1IEM1MC41MjAwMDg0LDE5NC42ODM5MTggNDUuMzAwMjMzOSwxOTUuOTY4MzY1IDM5LjQ1MTgxMjQsMTk1Ljk2ODM2NSBDMjkuOTk1OTUzNCwxOTUuOTY4MzY1IDIxLjU3ODcyNTQsMTkyLjcxNjI1NCAxNC4xOTk4NzU5LDE4Ni4yMTE5MzUgQzUuMzk5OTE0NjQsMTc4LjQ1MDQ3OCAxLDE2OC4xNzQ5MDEgMSwxNTUuMzg0ODk1IEMxLDE0Mi4zNzYyNTcgNS41MDkyMjkyOSwxMzEuOTkxMzY1IDE0LjUyNzgyMzEsMTI0LjIyOTkwOSBDMjEuNjg4MDQwMSwxMTguMDUzNTM4IDI5LjkxMzk2NzQsMTE0Ljk2NTQgMzkuMjA1ODUyLDExNC45NjU0IEM0NC42MTcwMDgzLDExNC45NjU0IDQ5LjcwMDEzOTUsMTE2LjExMzIwMyA1NC40NTUzOTgxLDExOC40MDg4NDUgQzU3LjE4ODMwNTMsMTE5LjcyMDY0MSA2MC4wMDMxNTc2LDEyMS44Nzk2MDUgNjIuOTAwMDM5MiwxMjQuODg1ODAzIEw2Mi45MDAwMzkyLDcwLjM2NDU3NjYgTDg5Ljc5MTcxMTksNzAuMzY0NTc2NiBMODkuNzkxNzExOSwxOTMuNTA4NzYxIFogTTYzLjcxOTkwNzMsMTU1LjQ2Njg4MiBDNjMuNzE5OTA3MywxNTAuNjU2OTY1IDYyLjAyNTUzMDIsMTQ2LjU3MTMzIDU4LjYzNjcyNTMsMTQzLjIwOTg1NSBDNTUuMjQ3OTIwMywxMzkuODQ4Mzc5IDUxLjE0ODYyMSwxMzguMTY3NjY2IDQ2LjMzODcwNDIsMTM4LjE2NzY2NiBDNDAuOTgyMjA2MSwxMzguMTY3NjY2IDM2LjU4MjI5MTQsMTQwLjE4OTk4NyAzMy4xMzg4MjgzLDE0NC4yMzQ2OSBDMzAuMzUxMjYyOSwxNDcuNTE0MTc4IDI4Ljk1NzUwMTIsMTUxLjI1ODIwNSAyOC45NTc1MDEyLDE1NS40NjY4ODIgQzI4Ljk1NzUwMTIsMTU5LjY3NTU1OSAzMC4zNTEyNjI5LDE2My40MTk1ODYgMzMuMTM4ODI4MywxNjYuNjk5MDc1IEMzNi41Mjc2MzMzLDE3MC43NDM3NzcgNDAuOTI3NTQ3OSwxNzIuNzY2MDk4IDQ2LjMzODcwNDIsMTcyLjc2NjA5OCBDNTEuMjAzMjc5MSwxNzIuNzY2MDk4IDU1LjMxNjI0MjgsMTcxLjA5OTA1IDU4LjY3NzcxODcsMTY3Ljc2NDkwMyBDNjIuMDM5MTk0NiwxNjQuNDMwNzU2IDYzLjcxOTkwNzMsMTYwLjMzMTQ1NyA2My43MTk5MDczLDE1NS40NjY4ODIgWiBNMTkwLjY1MDA2LDE5My41MDg3NjEgTDE2My43NTgzODcsMTkzLjUwODc2MSBMMTYzLjc1ODM4NywxODUuMDY0MTIgQzE2MS4xODk0NTQsMTg4LjI4ODk1IDE1OC41OTMyMzEsMTkwLjYzOTIxNSAxNTUuOTY5NjQxLDE5Mi4xMTQ5ODUgQzE1MS4zNzgzNTYsMTk0LjY4MzkxOCAxNDYuMTU4NTgyLDE5NS45NjgzNjUgMTQwLjMxMDE2LDE5NS45NjgzNjUgQzEzMC44NTQzMDEsMTk1Ljk2ODM2NSAxMjIuNDM3MDczLDE5Mi43MTYyNTQgMTE1LjA1ODIyNCwxODYuMjExOTM1IEMxMDYuMjU4MjYzLDE3OC40NTA0NzggMTAxLjg1ODM0OCwxNjguMTc0OTAxIDEwMS44NTgzNDgsMTU1LjM4NDg5NSBDMTAxLjg1ODM0OCwxNDIuMzc2MjU3IDEwNi4zNjc1NzcsMTMxLjk5MTM2NSAxMTUuMzg2MTcxLDEyNC4yMjk5MDkgQzEyMi41NDYzODgsMTE4LjA1MzUzOCAxMzAuNzcyMzE1LDExNC45NjU0IDE0MC4wNjQyLDExNC45NjU0IEMxNDUuNDc1MzU2LDExNC45NjU0IDE1MC41NTg0ODcsMTE2LjExMzIwMyAxNTUuMzEzNzQ2LDExOC40MDg4NDUgQzE1OC4wNDY2NTMsMTE5LjcyMDY0MSAxNjAuODYxNTA2LDEyMS44Nzk2MDUgMTYzLjc1ODM4NywxMjQuODg1ODAzIEwxNjMuNzU4Mzg3LDExNy40MjUwMDQgTDE5MC42NTAwNiwxMTcuNDI1MDA0IEwxOTAuNjUwMDYsMTkzLjUwODc2MSBaIE0xNjQuNTc4MjU1LDE1NS40NjY4ODIgQzE2NC41NzgyNTUsMTUwLjY1Njk2NSAxNjIuODgzODc4LDE0Ni41NzEzMyAxNTkuNDk1MDczLDE0My4yMDk4NTUgQzE1Ni4xMDYyNjgsMTM5Ljg0ODM3OSAxNTIuMDA2OTY5LDEzOC4xNjc2NjYgMTQ3LjE5NzA1MiwxMzguMTY3NjY2IEMxNDEuODQwNTU0LDEzOC4xNjc2NjYgMTM3LjQ0MDYzOSwxNDAuMTg5OTg3IDEzMy45OTcxNzYsMTQ0LjIzNDY5IEMxMzEuMjA5NjExLDE0Ny41MTQxNzggMTI5LjgxNTg0OSwxNTEuMjU4MjA1IDEyOS44MTU4NDksMTU1LjQ2Njg4MiBDMTI5LjgxNTg0OSwxNTkuNjc1NTU5IDEzMS4yMDk2MTEsMTYzLjQxOTU4NiAxMzMuOTk3MTc2LDE2Ni42OTkwNzUgQzEzNy4zODU5ODEsMTcwLjc0Mzc3NyAxNDEuNzg1ODk2LDE3Mi43NjYwOTggMTQ3LjE5NzA1MiwxNzIuNzY2MDk4IEMxNTIuMDYxNjI3LDE3Mi43NjYwOTggMTU2LjE3NDU5MSwxNzEuMDk5MDUgMTU5LjUzNjA2NywxNjcuNzY0OTAzIEMxNjIuODk3NTQzLDE2NC40MzA3NTYgMTY0LjU3ODI1NSwxNjAuMzMxNDU3IDE2NC41NzgyNTUsMTU1LjQ2Njg4MiBaIE0yOTQuNTQxOTIsMTU1LjU0ODg2OSBDMjk0LjU0MTkyLDE2OC41NTc1MDcgMjkwLjAzMjY5LDE3OC45NDIzOTkgMjgxLjAxNDA5NywxODYuNzAzODU2IEMyNzMuODUzODgsMTkyLjg4MDIyNiAyNjUuNjI3OTUyLDE5NS45NjgzNjUgMjU2LjMzNjA2OCwxOTUuOTY4MzY1IEMyNTAuOTI0OTExLDE5NS45NjgzNjUgMjQ1Ljg0MTc4LDE5NC44MjA1NjEgMjQxLjA4NjUyMiwxOTIuNTI0OTE5IEMyMzguMzUzNjE0LDE5MS4yMTMxMjMgMjM1LjUzODc2MiwxODkuMDU0MTU5IDIzMi42NDE4OCwxODYuMDQ3OTYxIEwyMzIuNjQxODgsMjMxLjU1MDYzOSBMMjA1Ljc1MDIwOCwyMzEuNTUwNjM5IEwyMDUuNzUwMjA4LDExNy40MjUwMDQgTDIzMi42NDE4OCwxMTcuNDI1MDA0IEwyMzIuNjQxODgsMTI1Ljg2OTY0NSBDMjM1LjA0NjgzOSwxMjIuNjk5NDczIDIzNy42NDMwNjIsMTIwLjM0OTIwOCAyNDAuNDMwNjI3LDExOC44MTg3OCBDMjQ1LjAyMTkxMSwxMTYuMjQ5ODQ3IDI1MC4yNDE2ODYsMTE0Ljk2NTQgMjU2LjA5MDEwNywxMTQuOTY1NCBDMjY1LjU0NTk2NiwxMTQuOTY1NCAyNzMuOTYzMTk0LDExOC4yMTc1MSAyODEuMzQyMDQ0LDEyNC43MjE4MyBDMjkwLjE0MjAwNSwxMzIuNDgzMjg2IDI5NC41NDE5MiwxNDIuNzU4ODYzIDI5NC41NDE5MiwxNTUuNTQ4ODY5IFogTTI2Ni41ODQ0MTgsMTU1LjQ2Njg4MiBDMjY2LjU4NDQxOCwxNTEuMTQ4ODg5IDI2NS4yMTc5ODUsMTQ3LjQwNDg2MiAyNjIuNDg1MDc4LDE0NC4yMzQ2OSBDMjU5LjA0MTYxNSwxNDAuMTg5OTg3IDI1NC42MTQzNzIsMTM4LjE2NzY2NiAyNDkuMjAzMjE1LDEzOC4xNjc2NjYgQzI0NC4zMzg2NDEsMTM4LjE2NzY2NiAyNDAuMjI1Njc3LDEzOS44MzQ3MTQgMjM2Ljg2NDIwMSwxNDMuMTY4ODYxIEMyMzMuNTAyNzI1LDE0Ni41MDMwMDggMjMxLjgyMjAxMiwxNTAuNjAyMzA3IDIzMS44MjIwMTIsMTU1LjQ2Njg4MiBDMjMxLjgyMjAxMiwxNjAuMjc2Nzk5IDIzMy41MTYzODksMTY0LjM2MjQzNCAyMzYuOTA1MTk0LDE2Ny43MjM5MSBDMjQwLjI5Mzk5OSwxNzEuMDg1Mzg2IDI0NC4zOTMyOTksMTcyLjc2NjA5OCAyNDkuMjAzMjE1LDE3Mi43NjYwOTggQzI1NC42MTQzNzIsMTcyLjc2NjA5OCAyNTkuMDE0Mjg2LDE3MC43NDM3NzcgMjYyLjQwMzA5MSwxNjYuNjk5MDc1IEMyNjUuMTkwNjU3LDE2My40MTk1ODYgMjY2LjU4NDQxOCwxNTkuNjc1NTU5IDI2Ni41ODQ0MTgsMTU1LjQ2Njg4MiBaIE0zNjMuNjcxMzczLDE0Mi4yNjcwMDYgQzM1OS44OTk5NjEsMTQwLjQ2MzI4OCAzNTYuMDczOTQ5LDEzOS41NjE0NDIgMzUyLjE5MzIyLDEzOS41NjE0NDIgQzM0My4zMzg2MDEsMTM5LjU2MTQ0MiAzMzcuNTk5NTgyLDE0My4xNjg4MjUgMzM0Ljk3NTk5MSwxNTAuMzgzNyBDMzMzLjk5MjE0NCwxNTMuMDA3MjkxIDMzMy41MDAyMjgsMTU2LjUzMjY4OSAzMzMuNTAwMjI4LDE2MC45NTk5OTggTDMzMy41MDAyMjgsMTkzLjUwODc2MSBMMzA2LjYwODU1NiwxOTMuNTA4NzYxIEwzMDYuNjA4NTU2LDExNy40MjUwMDQgTDMzMy41MDAyMjgsMTE3LjQyNTAwNCBMMzMzLjUwMDIyOCwxMjkuODg2OTk4IEMzMzYuMzQyNDUyLDEyNS40NTk2ODkgMzM5LjQwMzI2MiwxMjIuMjYyMjM1IDM0Mi42ODI3NTEsMTIwLjI5NDU0MiBDMzQ3LjExMDA2LDExNy42NzA5NTEgMzUyLjM1NzE2NCwxMTYuMzU5MTc1IDM1OC40MjQyMTgsMTE2LjM1OTE3NSBDMzU5Ljg0NTMyOSwxMTYuMzU5MTc1IDM2MS41OTQzNjQsMTE2LjQ0MTE2MSAzNjMuNjcxMzczLDExNi42MDUxMzYgTDM2My42NzEzNzMsMTQyLjI2NzAwNiBaIi8+CiAgICAgICAgPHBvbHlnb24gcG9pbnRzPSIyMDUuNTM4NDA5IDE5NC4wNjIxNzIgMjMyLjYxNDU1MSAxOTQuMDYyMTcyIDIzNC45NDY2MjEgMjU3LjYzMzgzMSAyMTkuMDc2NDggMjY4Ljc1NDQzIDIwMy4yMDYzMzkgMjU3LjYzMzgzMSIgZmlsbC1ydWxlPSJub256ZXJvIiBmaWxsPSIjMEQyMTkyIiBpZD0idGllIi8+CiAgICAgICAgPHJlY3Qgcng9IjIiIGhlaWdodD0iNzIuMjk0MTQ0NCIgd2lkdGg9IjEwMi43MjI2NDMiIHk9IjIuMjc5MDg4MjkiIHg9IjE0NC44Mjk0OTciIGZpbGwtcnVsZT0ibm9uemVybyIgZmlsbD0iIzBEMjE5MiIgaWQ9IlJlY3RhbmdsZS00Ii8+CiAgICAgICAgPHJlY3QgaGVpZ2h0PSI3Mi4yOTQxNDQ0IiB3aWR0aD0iMzcuOTk3NjM2OSIgeT0iMi4yNzkwODgyOSIgeD0iMTQ0LjgyOTQ5NyIgb3BhY2l0eT0iMC4wNzk5OTk5OTgyIiBmaWxsLXJ1bGU9Im5vbnplcm8iIGZpbGw9IiNGRkZGRkYiIGlkPSJSZWN0YW5nbGUtNCIvPgogICAgICAgIDxyZWN0IHJ4PSIzLjcyMDE2IiBoZWlnaHQ9IjE3LjM1MTM0MTIiIHdpZHRoPSIxNjYuMjQ4NDg4IiB5PSI2OS45MDkwOTQ0IiB4PSIxMTIuMzkwNzY4IiBmaWxsLXJ1bGU9Im5vbnplcm8iIGZpbGw9IiMwRDIxOTIiIGlkPSJSZWN0YW5nbGUtMyIvPgogICAgICAgIDxyZWN0IGhlaWdodD0iMjEuMzU1NDk2OSIgd2lkdGg9IjUxLjQzNzU0NzgiIHk9IjY5LjkwOTA5NDQiIHg9IjExMi4zOTA3NjgiIG9wYWNpdHk9IjAuMDc5OTk5OTk4MiIgZmlsbC1ydWxlPSJub256ZXJvIiBmaWxsPSIjRkZGRkZGIiBpZD0iUmVjdGFuZ2xlLTQiLz4KICAgIDwvZz4KPC9zdmc+;" parent="1" vertex="1">
                    <mxGeometry x="534.39" y="693.22" width="59.22" height="43.56" as="geometry"/>
                </mxCell>
                <mxCell id="9" value="" style="sketch=0;aspect=fixed;html=1;points=[];align=center;image;fontSize=12;image=img/lib/mscae/Cache_Redis_Product.svg;" parent="1" vertex="1">
                    <mxGeometry x="352.5" y="240" width="50" height="42" as="geometry"/>
                </mxCell>
                <mxCell id="16" value="Sub" style="edgeStyle=none;html=1;entryX=-0.074;entryY=0.47;entryDx=0;entryDy=0;entryPerimeter=0;" parent="1" source="8" target="14" edge="1">
                    <mxGeometry x="0.2868" relative="1" as="geometry">
                        <Array as="points"/>
                        <mxPoint as="offset"/>
                    </mxGeometry>
                </mxCell>
                <mxCell id="8" value="" style="shape=image;verticalLabelPosition=bottom;labelBackgroundColor=default;verticalAlign=top;aspect=fixed;imageAspect=0;image=data:image/png,iVBORw0KGgoAAAANSUhEUgAAAeYAAAH8CAMAAAAzAPwAAAADAFBMVEUAAAAkJCQlISEjHiEjHyEjHiAkHyEjHyAjICAjHyAjICAjICAkHx8iHh4kGyQjIyMjICAiHx8jHyAkHyAjHyAkHx8gICAkJCQjHiEjHx8jHyAjHyAkICAhISEnHx8jHyAjHx8kHyEkHx8mHh4jHiAjHyAkHx8jHh4zMzMiHiAiHyAjHx8oGxsjHx8jHyAkHiEAAAAcHBwiIiIjHiAjHx8jIyMjHyAhISEjHyAjHyAjHyAlICAkHyAjHyAhISEgICAjHyAjHyAhISEiHyEAAAAiHx8jHx8jHyAiHiIkHyAjHyAkHyEjHyAjHyAiICAkHiEkHiEjHx8AAAAjHyAjHyAjHiAkICBAAAAkHyAjHyAeHh4jHx8jHyAjHCMjHyEiHiAjHyAiHx8iHx8jHx8iIiIiHyAjHyAhHiEiICAjHx8mHBwjICAjHyAjHyAgICAjHyArKysgICAjHyAjHx8jICAhHSEkHiEjHiAjHyAjHyAjHyEiHyEiHyEiHCIiHyAkICAjHx8jICAkHx8iHCIjICAkHx8mGiYjHx8nHR0jHSMiHSIkICAkICAkICAkHiAkHx8jICAjHyAaGhoiHiAkHx8jHyAhISEjHh4gICArFSsiHiAjHyAjHyAjHyAnJycjHx8kHh4kHR0jHyAjHx8jICAjHyEkICAjHiAjHyEjHx8jHyAjHyEkICAiICAiICAjHx8iHx8jHyEiHiAjHiEcHBwkICAjHiAiHiAiHx8jHyAiHiIjHyAiHyEiHiIjHx8lICAkHiEjHyEjHyAiHx8jHyAjICAjICAkJCQhISEkHSEjHiEkHyAkHyAiICAjICAjHiAjHyEiHSIjICAjHyEkICAlHx8jHx8jICAjHiAjHyEjHyAuFxckHiAjHx8iHx8kHyAfHx8jHx8jHiAkICAjHyEjHyAjHyAjHx8kISEiHyAjHyAjICAjHx8jHyAjHx8jHiAjHx8iHiAjICAiICAjHyAkHx8iHx8iICAiHyAiIiIjHyAkHiEkHiAkHh4jICAjHyAvGh+CAAAA/3RSTlMAFT5lhZikr7GmmYlqQxwdYKPm7a1rKA5eu/7WgB8h9vusMSKf+rMzBW/0ohM651QBCQ+wyxbOL9nu4TfQ7CcIwN0XlQNLe9RE1/Bk8bVpXF2KAtj8qEcEpfIRUa4kfcHvUkrrHt7VRXjTG6HR5SDoBhj9QUg9Vpf1vcyNlC3PP5NYMiWRchSbGiw1T3mBh2PCxwq5evcuOxAMd7+2vg1CKyPN41B1QG7E8+l8umhhi2KMhmYSiOJ/q+A8+ZxMczBVvOpb+NLKBzZObZaesqp2bDRntHEp26mghMYLj5panRlJuDh03+SDRsjcX5LFgtrDfldwpzlTWY4mt03JKpB0v0NpAAAlUElEQVR42u2deZxN9f/HL9os2b80E8bSMNm6I9IkRjXWbI3JIMsVKbKMCREilYbSYokRg6JQZE3fqGSJVEq2NImiVaWNSt9+52cZzJjX+7Occ+/9nDnezz/n8Xm/z/v9ec0999zz+Xzeb5+PYRiGYRiGYRiGYRiGYRiGYRiGYRiGYRiGYRiGYRiGYRiGYRiGYRiGYRgj5Mtf4KKLL7n0soKFChe5vKjpaJgQUKx4iZJWDkqV/k8Z01ExwaTsFRGRFuLKcuVNx8YEiQqFoiySipUqm46PCQJVroq2hERWrWY6RsYhMVdXt6RE1qhpOk7GCbWulIt8ktrXmI6UsY3/6mg1lU9QI9Z0tIw96lyrLPIJ6vIzd56k3nU6Kp+4cdc3HTGjT/nr9VS2rLhapmNmdCl6g67KllW9gemoGT3K3qivsmU1bGQ6bkaH+MZ2VLasm242HTmjwS32VLasxgmmQ2eUaRJpV2arqenYGVWKNrStslWRH7fzCpfaV9mymsWYDp9RorkTlS3ratPxMyrEtHAmc0t+2s4L3CqQsFXrwm3atmtzW+tWgkG3mc6AkZPYnpIv6fYOZ38uJTfvSK5edepsOgdGyh2Uel265hxYoSA1spvpHBgp3bF0gR65h97ZE48tye9I3E4v/Gbkrq5ocLHeWOe7TWfBSLgH6tanLx5dE28iutd0FoyEfki2/uQRiwED4UNYiuk0GCGD0D079T7aYDC8yQ8xnQcjZCgS7X6RxVX8rJ33QCuQnYS7sAcNAybDTefBCHkAaDZCbDISmLQynQcjpBPQTHLucRS6aw8ynQgjYBBQ7EGZEfpRNdp0JoyAIfr3bJ9vDDAqYDoTRkAPoNhDMqMrgNE9pjNhBLQDio2VGdUCRheZzoQRUAQoVkxm9DAwesR0JoyAR4Fi42RGfYHRY6YzYQSgT3OazKgrf5rzGOhparzMaAJ/N+cx0JP24zKjh4DRE6YzYQSg380TZUZPAqOnTGfCCEBvwZ6WGT0DjPKbzoQRATbmpvYVm6SlApn5nbarQStUktNvTwATXqFyN2hVceAkkUVsbWAy2XQejBC4e0T4ENYNWUwxnQcjBO4Fm/osbVAGbR6xppnOgxEDa460mE4NT4c7QeNSTKfBiJmBZLOei8ejE2bC4fxG2+30SoXCzcpAg+OJA++zTWfByCBqCF05J/fQuc/jsS8k2rhujB0jxi7zsHTW1HLn/a6Kv4eqwTxf64JlX3zpsQXt404aLuw9s1CRysmmp+BCIJGsrbzo5Ww7DIo+UZIaFyirfrXxMxrnOidd/ZXFXPAg5CyxSFLrvrpkdrVqs5cueyCVHrVc9UoZK+oSLpIaP8Sf6dCS3MxyRM+VatdZuWqhyM1r8zPU/DD2mO1M5sVKF0lf3VLmaOAKPg4fSl53ovKDStrc/V8VX/3eMD0VXiatp4oGmDUqbWymr1WsFpl0EReTCx1v2q/Z+ZaC+7eVPsqnqVvF9GR4mEfsqjzZL3e+TqHn0Tka8pH4kJHyjj2V2ys0pGqqeauI4uZHISNDs5/JadZ3lXueoe01dYPp2fAuaRrfn2dYqPD4Vc7Gf0/FO0zPhnepcJOuGgGFUtqL7dwkrI2Xm54N75K2SU+Lkm/LfY5Wb1OXg4bcyyxkZGh1lXu3r9xjeds/yOtuNj0b3iWxqfqH72KFHpGJz9lV2bLGmJ4ML7NFsbXcwPdUvG21r7KVyj00Qkh8tygFCd5XqqA9d5jcFU2zFNNz4WkGfFBRIsCHCs9eJ9nmRGXL+sj0THicrvcLFoajb5+g6GaC/Rflp+jJ688hps7HC7BGm5pKaxmcZTit4KKrlm5Pq9O5/IuPfjiVHsVnpkNPsU+2xeWc9WE7du7ScLCdlG/BvGwbgjKK7KbGNeSPczg47z3lHj3rTwnxXph33sCYlzoRQ9X2pTDOcCTzOOJuvA1sA61C7AR81/QMXBA4kvklrNxePxo8iXj/Nsr0FFwIOJIZP4DtJUan7IDDC5ueggsBJzKvhD++X/dT49P7oPH9TE/BhYATmTcg1V6rQxvM2QgMIrmkSehxInMhJPM8kcVqZNHO9BxcADiRGZ3k+ExokY4WLUeanoMLAAcyZ6IjV5KtfBOBSWPTc3AB4EDmykCyhpLDcBXA+9WepufgAsCBzKisp7TDICqDks/0JHgfBzK/BRRbIjP6HBjNMT0J3seBzKuAYs/KjIoDI64FGnIcyLwPKCataTAaGM1TuRrjBAcyg0aSa6RGzwKZvzA9Cd7Hgcz35hZsmNRoPJCZz1OFHAcy788tWKq0uMgWILO0VD/jFAcyjwCKHZAZoY4MX5qeBO/jQGZUpld6LuoeYFTZ9CR4nulrc874ZRpl+VARKukOvi7ASNoUi3FA3wIl2ud699hq+JNNJqnZjwaKNZbYpIBSQ/LnNsYuXcs9T26xjtqxWKFAgS8NmCb1Ets8Dmx4X0GIiL+isWQb/cZtg+U1olDlx71ik6+AyVrT0+FNMubXthTYfWuKxNFlwKqlsBzgQfTftcL0hHiR+CmlVEQ+yQsfiwt4HUJG+wQGiZ8hC8XTWowG675WFfkkV3YQ+ZqDTCLvpg3g/8U3ftNz4jl6adeMuuwA7S0+gCx6VqDG3wcP0L9velI8x7o4S5tAW8pb8xbYYjdRyaIyvnpz07PiMTL36It8khLwd/TcqqTB17Bt8GBcnbc/F/AMKhX6WTZ5MHfJn0nfCg6zWp1uzWUQMzEJj11tel68xRsOKvCuP39/Rw9ZHbmnc1YV8c+jyrZHHzA9MZ7iO0c1QqY2ye6r0WQFk+/bnD0MX/7q3uSwGqYnxlO8t1FBGQFr1p11lb5qjaLR7tdHTJmy7PUfRH655HIQeUhWUUZK0uEzrr5x6io7P5qeGS8x2+Fn+STRg096mjMrmCJbgXqmp8ZDjA84F8Syhh30ZZZTvV8rcoXpqfEQaf2Do0ntl5SWPDTYYXpqPERicO+zQWS9emEqRkY353qEhugXTU+Nh3jD8UN2qPjE9NR4iElaC4+2qFr/JztmT5qeGi/xs9KUR8bF2S2+eeROn6/O8/p2XEAoiHSdKpvu3mM2VDtVUDFj7BePaDcMXTgj5aRt519YZZO0Fk/21+XOe9lYvptO05PIjmeWlmMv1RI5+j+mJ8ZT3Cec7CvbgSNPCV/0VtTKejBbbzj/r6mqZid+SfEzdlB5RTDXC98izrUlXN1JRatSRXJu8e2g/BbmnV4KoTPKbBfM9feC9kDFFkilSro/1479zjWUHuNarfCbnhePUZqe7JEpIsOYzyVaLYDH24YoPHGXLmZ6VrxGBfrrspvM9pDok9m/rR9bJf4m3okU+VwH2YUZXV4mp3uG3Pgt0ji6sKCivf/OD5Mow04jy5ieEi9C9pt6RMWabPdcXXJisu/v3YHSnf64RvGkJaNFA0qn4UqHmBPJrfvyXq3Tvyw3c/fZzffD+uz5/WCK6enwKtTHcf0BNfu09YSDEmr2CcUqH23efEL9m01PhLchDkVYyg2yvyAcBFJMp8ac5QAh0i9+ZReNCRdvmM6NOQv1WdRov3mQcMEt/9zDY1iixjo+umMf15rOjTkL0Xf9mI6PedjHIr/p5JgsEvFKcyBex0kKcVKWX1i6hQpYoKv0vOzHXkabzo7JogMWqK2elz+xF2l1dCZMbA3K7TYNe/nWdHZMFnuhPqV03eCDFtKWFkyYwK86P9N1g/fyXWo6OyaLD6A+BXXd1IBuIkxnx2TxOtTnYl03I6Gbn0xnx2QxE+ozQtfNKuiGq6m6hQ+hPn/punkVuqlrOjsmi4LBuWnfD908Zzo7Jot9UB+9busnuB264fPnbuEvqM8Dum4egG7+MJ0dk8WvUJ9Wfj0vflyBkVsuu4W2UB9LcwvtLuzlUdPZMVlswQJplqL/BHvhro5uoTMWSPM1ZRfsRdrYlQkXePvtxuk6PurgvQlJmaaTY85AHHrVumvfin08aDo35izECar2Gn3j/MSJdn7Qdg9vYIl0Hp+IHX+6W1CYELI5ivg4p6h6SGlPyDzAdG7MOSIIkQ6pOjhEOOhjOjMmGysIlaLmqNnPIW4H1kQF4+SxG6YUah0RUTei4Jimj1fwm54M79KZqoq8KVbFPJbYz29Z9SWW/i0/z6qe06TVjiJcBz9EXEvp1EXhaTuxC2UdyBAa7hpB1M/ftFXrNzujyFBKKGukX2brH0Ma06VHTpg16U7bWVFX/W16TjxICt2WYr+kbW/yB5aIBWOx2Zc3WmIqPlbU9Kx4j0P0fLcWNuAd95VErtRC43JbPXzckjN1BJcgCTJlBU0u/is4i/7iC3K54raeVyQwcWeUgsonOHLU9Lx4jeWiD+Q+4gNd71O1osub7sthpd5rIWmvvNM7o8E4YYvXlt/WzG1S77aFynptO1d8c4vCDeAcVTM0kmCkbBVP99Q/vsxx3nnS46W1WlYN65b1E7yJZm/CTeXtZMMQJG+STXhUxEVtDzZKK1qmVvEnG+u3JbvrVJGwDdoNNf7L78WDyRt2mxsoM2u873EbbVNuqOA8OeYsa0MtsxV9r63ehD+Mc54cc4bMFnY0CAe/pJieGy8xStrVxBS8CSWYXG1aTpJ1pqfGU9wSHFFmjVJ5malDT67aGkQS9LoHEfSr4/P9c1dwdeZygcEk83/OFbnp1CcvtlxUUHW+2/TUeIp8fZzq8ULXLFcDKgVT5uf9pqfGU9Ss60yOH7K9zLhcsR9ZyW1N2x77p/i3l7UUDHrI9Mx4izry1lICmh3I7ivm94DUouXn2/1nxid/t4dsc9Lbr5kIIyS2o32VZ56/iavefnGrwI2r6uQ0KDOTGjrb9MR4DP8MjS6O2YlcBZaHJ3wv+vCDvZ/tiI6EpU3Pi+f4TrmLY3Z69oDO/MVrUxYz4WryHNwwvOIg09PiOVbu0Ve5KilD2RH4G3dmCh5fHv/o/sT0rHiQoVqbPCyr9mGBs+lw/fFGckvfv63gf4XpOfEimd9qrGSsKVxW5GsdsqnelTaA1bk38oahUNBrpKLQGwtJzsPApWzhQbyqyILfhIWGQYVLyUWOW5Ym89MMmH2dIrL4F32bNzU9H55l89CvhL+uUiP+lLc+yUCaLRbboEWUy0zPhpepV3wb8RKyU+mnDqh4QM3Iqku+aL8ENq+ZngqPk/x2gX3nHbOqvX/x9hhF8w1AstclNingNWmq6gUZ23yec8r3aZh2AzLfKjNCh3F5L2/IcSDzj0CxsTKjJ4ARdxYNOQ5kvhcoJj3teAwYvWd6EryPA5nBU/NCqVEtIHMPhYsxjnAgM6hasV5qVBnIvM70JHgfBzKD3UItpUboVxjvIAk5DmQGLaoipS9V3gQyf2l6EryPA5lHAMV2yYxQJdEJpifB+ziQ+R6gWDuZEXrbyb+bQ44DmVE9Kll7aD/YwJKk1TmcsYMDmZ8FMveUvLicBmzam56DCwAHMsdGA83+FNt8Cky2mZ6DCwAHMvvQkZ3rhHUii6IyorzeHHqcyAw7mrUTWaD3o9YQ03NwAeBE5juRaD0FG3K/Q4VQWvI6ZOhxIvNmuMN+Filb0UVofBfTU3Ah4ERm3zYkm3UV8fVcEx/LLG56Ci4EHMn8G9TNujcFDS7aDw7ulG56Ci4EHMmcMhDr/HTf3GPvJk72PGZ6Bi4E6pXOOek76mmZT8TSWYEiKTkHHviAKkPXwPQUeB3/0b9655r8yGbLGviVXaRFE+JZd+3Md+5CW/ZFUeNmmZ4Fj3Og2w3U1H89RbnCz0iLJOmZV4t3mNZ86IxKdJF+y8pveh48TZWrogVzb61Zq7hqVK+T5Qj+MIeQmvdHy+Z/zciVSq66qYhJf+K5UH7I8D/VUEWCnkv9Cs5iHZUEXWZ6LrxLvstURfjqgIK7sdIbA831Sn3PGBtMq60uw0CVVYW9tlWuyPvwQ8USrdrXawrIPcYMtyvzTtOT4Vnm60qxSu5z5RF7Kl9iejI8i43n4sJyr2Xi9N1a1i/8xRwiPrEjxwy538pKj+45+b6s3C9jh2NJ+mpYVmQ7uWd9nety99cQcdBmN4To++S+R32t53MHlw8KEdM1lTjHQIVCfDXf0fFYKFnukbFFaR0dcnLcL3ef/Jdyx6uW7UzPhXdZYl9ly/pY5Qr5d6s5m9VLxRtjh87rncgcUFqZnPSjQo3fkksTVXwxtnDYvUZ2NiqLfytJ7tzV9/LWrxAyR/xbqmJcnFifyGqKFxpbQvA83/8etdVNxiaX0HPfYnmHoidG+HsNXnUlPUq9unnnrQ/Af5moSutSTE+Dx6lAtWSN/LBW9nEHu1Af6lTpAfVs3HxFxx9yfE1HPzDyN75bhxxqy9b1ud58TKNaGX2gecn0BsXfWl7oBE++9N7b/Po6HGwm1hZuB5+w2P14bPVM01kwEo5h5d7HP21m4NFtTWfBSMA9IpdTw1fD4cdNZ8GIiY9Csl3qJw3gEbhofoZyN6ORaiVr0gbT4Qb6wabzYISU0/6q/QJZKOwXYgwyC2jWxy+y8KM2Fp+ZzoMRgooELBGbLAUmrUznwYiYDiQbJnmeKoue2rjNn5tpABT7UGY0GRiNNp0JIwCVjjgkM2oKjA6rXI0xRAGg2Hcyo3nAaKvpTBgBO4Fif8uM6gOjKaYzYQT8audpqgIwWq5yNcYQ6O1IPplRUWCkcM6GMcYhoFh5mVEZYNTNdCaMgDZAMWkxiNnAiA+qupm2QLElMqPFwEjaGZAxSH6gmLS2HmhLw/20Xc0goNhrkj3xiWgpkluPuJpWQDLJi8vRwGQqH5dwNc8AzST7rtH+kQdN58EIKQw0S60vsoCHNB4xnQcjBDYreFpwC/ZHIAtuzOpuysIzF/Npg4/R+MhxpvNgxKDFYyu6AzV8NKwd9rTpLBgJh5Fs1kKiyF79ABzexnQWjAS45ceyht2BBndoCQdH8z3b9cA2Xye+bj/PdTAqfjlRcaCS6RwYKeOp86w3HM7RNSrhix+IgdYW0zkwcqpS6lmvXbQ94fSYxGoT6ZpSXMY+L1BLVHOi5TMFC71f4qeAYIh1uekMGBUKWo641nT8jBJ9FzpReePDpuNn1NCupJ2diaajZxRJtF3E3rLqppiOnlGlb0+7Ki+U7upm3EMTW+W0LStyqOnIGR1sFcdXKo/PuIkn7ah8semoGU38HfVV/jDBdNSMLgkX66rcMcb5VZmwo9kD7i+/6YAZW8wLqIscxecs8iwP36iqcu9/TcfK2Cfm6uoqIkc/wsVY8zZzZ8pVfqeR6SgZx9SqKm56sOAf0xEyQWHLp+TS5LAS00xHxwSN9MOtgdLVjy/lJp0eI2bI6kq915xReM2VpSeOTjEdExMakns9W6tDh2nPlufGjQzDMAzDMAzDMAzDMAzDMAzDMAzDMAzDMAzDMAzDMAzDMAzDMAzDMAzDMIwXSOzcq8r4atVMh8GEhoS/r1m9r+oD/U8X+K1tOhwmBIw/dF5lC5bZ56uGKrq8bToq29z8xKZc2eSUeTxKuLLpuEONp2QuPzIKZMMye0rmmBlTYbUpltlLMv/bjCgqxjJ7SOa7yTq+LLN3ZP6tosUy03hE5vwbLZZZgDdknhtnscwivCHzKxbLLMQTMhe3WGYxXpA5fhHLLMELMq+wWGYJHpDZ35tlluEBmYcIJK6++/uIPTlGs8x5VOZVhMSRr7T7259rNMucR2Xuh1U+jhvdsMx5U+a+uOPNbX48nGXOmzK/CVUuQQ1nmfOmzIdQBj07U8NZ5rwp81qUwa/kcJY5b8q8AGXQixzOMudNmduDBFrQw1nmvClzf5DAJfRwljlvytwKJFCOHs4y50mZ/UkggY/p8SxznpR5M0pgKT2eZc6TMsejBNrR41nmcMlcLP/gdU9tXbFi3YtlYh07ywsyFx0SxIRtEV6Zk7d8tOfB6tmulPrDtfccddTX1d0yJ0yYv+e6HAnf5DRhW4RR5ppFdnRCV7PiavxjP3EXy1yzTdVWMOFAjffCrLS2zP4REZhuwutsvuayNRZN/4n5so/+Dfjvkn3A72f/PBy5a5bd0OG2Av8yIuHVwoRTelwrTPjnetlHrwP+LzUp85NE3NfVERhl7vzGklB92cpz42eAAaWyOywkc5cNh5uELiLc3jhdYDTp9xdkYQ0bkS1htP4SMChzESLoIzfTNukv91SRo+EnfhfK3IbwunsQbZM5Zb1KYKXanE3YZTL/k4Qj/mYAfYl//qsqyCsHXCfzm8TZrP4VBAl/rRpaRJorZa4VhcNtOIe8QJXWGooMHOwymY8SCZcaTyY8oKpGbIvudKHMXYl70bBapP87WmokbVmRj7pK5rnERv9h08iE5wUsHSLfcp3M+XbjUNcMprxvfkQr55OscpHM+Y5gj9FfUgknr4q0NFnlMpkznsdxJl1DOR9UV1tly7rNNTKnP0AkPJRKuN73NhJe5iqZY77CUUYWoHyXP2Ijacta7BKZY44TCa+gEu7V3rJDGxfJ7L+KCPIjynUZ6U9HTPR9rpDZ/wHh7x4q4UY32Eu44mz3yLyXiPE2yvMupR/LiPXj3CDzz4S7ZVTCf4sPZgroWc8tMlOnDu/1E44PKP94BE5dIHMBwlsNKuFxR+wnfIlLZH6PeC1SOoHwSz2vKRE5GfwxvDJT74EupdYcMt91kLCFEg6/zAeH4eje2Uy4TdR5KaJGWGVuQCQ8K55I2H9t0BMOu8zUW4J3Myi3bwU96bDKPHcgdkUvV7wU/ITDLTP1luBIPcrr+KlW0AmjzNTXLL0+Mycq+AmHWeZ04iXHDUUpp7GS+gFZaZSM66QyLoscMu9qfoY70dgx67Lxj67M1Nfsa8WohOM3WQpoJhxemZNn4ijWNyKdXmSJ2TTiigmnl6cz/71jYoTaR78UvlY8GtuOTlguczLxXLG+DOm0nCT23p8f3nL6fj9p1+OrJ0e5T2b/fhxEq7GkzwpC3VrsTDtvfOyxaytaUsIm81p8/U7bSZ/FiAe201x/6PzbXuy80tEuk3kijmHqi7TP1wWxf3Y5NBkwRip0uGQmPplT76N9dhSE/W4HP/zP+Fy0hSjsMhNvCSq+R7vMT0f+wjx6+hu7Q+ZbiYTpyH1H6VWpkuv8lFWZCPfITGyeiDwscEmHf4lo+5S/7UJLRHhkbkIkXFwQOf2OYE9N0dz/Jl6LD5/M26vjCN4SeBxF/W8nzZDEMuou4zJvJ/7VDgnCbpRKRBwpOLF3iodbuEJmarfIXpHHe4mopzaRBpPvF8MyU++BlouifowIeM0d0oRXznKBzPWI3SLvixymEY8W0W8qRJNBLOSHSWZqe8zFfkHM9YjfFRV7KCQ86TPjMmf+D1/+9kSRw/lE0G2Vwql3xKDMVMJ7EnwCribifUop4ZpXGpY5eQe++vEUoUPildlfivHMxcdRwiFzMrElc7I44Z+wlfCWl41epczKTHzlfJYplglbfa98ZmiJMZn34es+I064F37ivC5FNeE/jcpMvCXos1Lsbwq0qqhx+K6SIZl/xZdtJkkYliWzkjT6j95uUOal+J/0pgMSf89Asyc1IjpAvDkMscxLcMJ3pfnEdIdm/6eRcD5iPSMQJIlPQsj8JX5LsOhvibtY+JzdcqVSLFm8akJmImHB+sxpNsPn7Or1fBoQ2+wCwVH4FFhm4i1B4FmZu9HQrptKJGcZh/+7QypzNSLh+rJgj0K7i7QS7owPagScq3sWKHOPgfC6giMlZ2iK7DbmUwgkG3+FXeZjRMJvSGOFvx8r9tVLGFcEDzhTNgdQZvyulT5Scg64Nt1RM6ZRYZeZSFj+3s4Ht4B1kdvloJEZmSGpfyq4g2dcFf49cgJ/e4dSZpzwBoVQjyBLlfdfOYC/vQP2FIWoy1xEwdtm9Ba/1WYFyxx85AqZP1aINBltD4jKVLDMwe+ukVnpMQrefSppB7XFDTKLS4tkUQFZttZO+G23yDxSyVsTZPqodlDJ6I1nmGW+RSnSu5FpU+2EExu6Q+Zf/ErePka28ufzXDxnXOafhOszZ4FnjprrJ2zk1EVuKh5V8vYysp2uZJqD/cZlrkgXYMjOR8j2gH7C97tDZusGpRdZqJpUnI2o0L9LmG/arykljDZETvXrJ4z+XQI2Jo5C+RFsj4o3VIOin42oDpuX2XpdJdBXgeERGwl/4RaZrQIK3vYDuwU2okKLc2H/QfWJQqDoZvu8jYSPmZAZvsYfNkfurSCwm2wjqh5hlhkmHEUXhTrLp8DuaRsJo2ZaARt+KKDMeK25j7xIMNruF2EjqjvCLHM5uArZbJI0ULT3oruNhI3I/DY+X3K/1Bu6h/1kI6r/hFnmBrfAhAtJA0UPI3VtJIx+mAXs6EmAZU4/AtO+RuZtGTBqoRLGeaAn9pDKHIt33g31SVgOjG6ykTAqdBKwpyiE2FbQAH5bBQZIvKFoo/z6UaHv+JDK7BuL90MIKnOeAv3yi07waYO+7QK2Rc0NtUkI74z6TLJzbycyKqYWSXbQ+ejQygxrVFnW9zHiQNG3i1VFP+EbDcmciE+uSbZFoN8FlvzwwflkoIWuEMuciA9ASHax/YNs1mknPAndPAOOhM0JubOzCtyqk9pc39sq7aBGIzchltnXC27VSf1OGCncAbHMp0st5CbgTFm5MKe22xaH/92LBom81UQmD2oHVdiEzL5rcMIHRJFmIJNN2gnDTX8BR8LmRHC4Bp9G/8ovcodWECOLqgSSnSNGZPZdAhOeLFyrgqUMe/k0gbVaAo6EzYlA5pW4P8V8kbvuyOKQUiTnCP9esNMy18Fl/IXndSO0LQBl4HUDTrXNhuhEZHN4cDdatCb5KrLorRnTxYZk9r0BS/sJF2FhNZ3r/XoJjzEqs28EvPxNgh41Q6HFbK2Q8kWZkhm+7bCsuwQJz4MWehsLVuJiAYFg6JuFUObN/eD1/6DdDYAGw7VCIorahEPmFHy+WrAImwYNZmkl3A0nHAiGvlmIi1IQ1foER3dxXYkXVULJYhBxpCgcMvvK4ANcgkXY66GBoOxQLm4mzvoGgqPwKSQlZuDOUmvYLtIfbm7RTKNXHlGWKzwyE22nptKnil7FCUvenmWHOHAbTpn9k2EEm6hCtL7mOGT1h+1qRIXjMMnsx2fZ6UVYojyWesLbqYTDKLMvrSEMgdzeGoOPfW1UbbaZThbXCY/Mvny14dXJRdgE3ARAPWGyP0Y4ZYYbOSzB+RGikND1ndXiwa8owiiz70180JlchCW+ZNorJlzQogirzHB/l2XFlSccTiOC7q50xOYjMumwyex7H086tQgLj4ic4DmlhJ+gEw6vzOk/wCAWUE9VfYioL1VIm6rKE1aZJ+HvDXIR9joi4NIKCT8qSDi8MvsO4oP8VA24rVTYwzNkwewUtWQLm8y+arg8LlUDbjEVcUS6LOFDooTDLLNvNYwilXi3VYdskthnjjCUTPp7ObwyE3dSahE2Az+lnmDTv8KE0+nvZRMyJ+NSdCWJIgQvk4EPayNY7Xm7jyUkjDIndIcR1CYqiuCNJ6cS/kSQ8FhJD4Fwy0xsMbCO+6HLdEHbretGE3H0LZRkiQmjzL6icTCEr7BomQPpqJ/PbzvhsMvsW4oDIQrxzhcF330deEE04RZhffmwy+zbgGMgFmHxu8IsGq8Dz24qCYdfZqIm2xrcFyB2tzD8RR9ck/03ZfropkodUMIqM/FzNnoL9LlZWDDZGrj/vISnNFNJ2IDMNfvDSH4oC53eJ21i/MLkR779aMWj395y+ybZvcuMzNNxW09iEXYIVVI7W8I/7v1oxc5vR/6hnLABmX13Y+WIJbq1VvAJr8y+IViNbdgr3gnhDBMy+z7HsSyBXjt/YwWdMMtMFOsiFmHrvOYRmYktBtXxmuRBaV8W18scg5uOEYuwDTZ6Q2bfKJzIjXhNsoijDNFrqHDL7NsVBWMjFmGpzsf2EzYjM/X+dQx2vN9B0lHoZGXYZcYFc8hFWKrlhVLCI90jsx93HorEHZo2f2U/6yekbbrDIrOfaJuIF2FTHPQybuqSNt2nILYYEGuSscPtJv1Tgjtk9tUbCOMj1iRTiP8KOe/GuElm4viJ9QteostcYC/p9QN8LpHZ9x6OkFiEndTdXsI9K/hcJbPvAxznz3h0uq0O5RuH+FwjM/V7mFiEzSxtJ+E1+X0ukznzCAw0Fff39PllDW8BSScrBLhG5kl4pxa1JukvJ33/lzvh33xuk9l3FG8x+GYcMf6KKM2kp546De0amX0T8BYDahHWt0G+JHFewqce6FwmM3UkYoefGP830aaJYNHpGorukRnX+7es1lTCXUUNEMmE3SZzMm5NY/1OGfhXEO1EEd2zuge4SGaibANdV1gr4aezEnabzL6uuPnHGrrx0tyO0vWbLCHbnCnO4iKZfQPw2Zc1dHP2KiUUE44rciZh18lM9bEm1iRP8e82hSeTyBrn9uC4SWbfFfoJ79JN2H0y+7rgqEuIbOqPxNtuzhL1WPZjSq6SmWr7JuzUMupHsvdjVsJrsyccapnLNgeId9pOb44Rb0uO3/AKvYjTfn7OssYDgHtiF1kiCuUAHUc6Gi84wHyCOkTC8UKr+D8nqydcHrjXOUbqJiYNXnZj7m+tqJkfzzUdWagS7vDqgyDh41u7mo4s1MTWH9qtxCs/9bsprn+LdyM6Nu3RSONMbF4kvv66l7MSbl83omDTY2U8njDDMAzDMAzDMAzDMAzDMAzDMAzDMAzDMAzDMAzDMAzDMAzDMAzDMAzDMAzDMAzDMAzDMAzDMAzDMAzDMAzDmOX/AVVB4euwBF7aAAAAAElFTkSuQmCC;" parent="1" vertex="1">
                    <mxGeometry x="341" y="350" width="73" height="76.3" as="geometry"/>
                </mxCell>
                <mxCell id="18" style="edgeStyle=none;html=1;entryX=0.99;entryY=0.5;entryDx=0;entryDy=0;entryPerimeter=0;" parent="1" source="14" target="9" edge="1">
                    <mxGeometry relative="1" as="geometry">
                        <Array as="points">
                            <mxPoint x="564" y="261"/>
                        </Array>
                    </mxGeometry>
                </mxCell>
                <mxCell id="32" value="State" style="edgeLabel;html=1;align=center;verticalAlign=middle;resizable=0;points=[];" parent="18" vertex="1" connectable="0">
                    <mxGeometry x="0.2783" y="1" relative="1" as="geometry">
                        <mxPoint as="offset"/>
                    </mxGeometry>
                </mxCell>
                <mxCell id="37" style="edgeStyle=none;dashed=1;" edge="1" parent="1" source="14" target="34">
                    <mxGeometry relative="1" as="geometry">
                        <Array as="points">
                            <mxPoint x="410" y="520"/>
                        </Array>
                    </mxGeometry>
                </mxCell>
                <mxCell id="42" value="Az Monitor Exporter" style="edgeLabel;align=center;verticalAlign=middle;resizable=0;points=[];" vertex="1" connectable="0" parent="37">
                    <mxGeometry x="0.0755" relative="1" as="geometry">
                        <mxPoint as="offset"/>
                    </mxGeometry>
                </mxCell>
                <mxCell id="14" value="Booking &lt;br&gt;Processor 1" style="aspect=fixed;html=1;points=[];align=center;image;fontSize=12;image=img/lib/azure2/other/Worker_Container_App.svg;" parent="1" vertex="1">
                    <mxGeometry x="530" y="350" width="68" height="66" as="geometry"/>
                </mxCell>
                <mxCell id="46" style="edgeStyle=none;dashed=1;" edge="1" parent="1" source="20" target="34">
                    <mxGeometry relative="1" as="geometry"/>
                </mxCell>
                <mxCell id="47" value="Az Monitor Exporter" style="edgeLabel;align=center;verticalAlign=middle;resizable=0;points=[];" vertex="1" connectable="0" parent="46">
                    <mxGeometry x="-0.3337" y="1" relative="1" as="geometry">
                        <mxPoint as="offset"/>
                    </mxGeometry>
                </mxCell>
                <mxCell id="20" value="Otel Collector&#10;" style="shape=image;verticalLabelPosition=bottom;labelBackgroundColor=default;verticalAlign=top;aspect=fixed;imageAspect=0;image=data:image/png,iVBORw0KGgoAAAANSUhEUgAAAPoAAAD6CAYAAACI7Fo9AAAbeUlEQVR42u2dC5Ac1XWGVxhAUBUIJDFC070SWFVAcCCOAiFOxRaYFGgfQotDUsHW7qyEVuDYgQQ7wdgOY2E7wU4FbFJl4xirAHanu2dWD1YPnrU4BTiOSYiTooJNAYqgKFcMYNDOY+fVOef2vbM9o13t9DxW07f/v+rWPLQz0zPqr8+55557Tk8PBIVErtPzPjfRc/xC/za9wL9BEBQWyKfnIH7bOee0zHjv2pwTuzxrxS6dcVavqLkYuD3L8ItBUJgAJ2jJih/H9zPJlR/KWbFkJmm8WUiZrrvLdMuTpptNGjM5y3giY8UG1OscAh6/HgSFAXIC3O3xrHPONm5nqN2pXreQMtysZVRolGiU847hunu8fyMLbynIXcAOQSGA3FWQm992DzDERplGQULu+gY/LvK/uft72cI/6wJ2CAoR5Jb5HXefgHc+wI8YZPnzbNnpFrBDUKgg96y4G2DMem688UPADkF6Qg7YISgikAN2CIoI5IAdgiICOWCHoIhADtghKCKQA3YIigjkgB2CIgI5YIegiEAO2CEoIpADdgiKCOSAHYLapUR3Qw7YIahlS85FI3q6HnLADkGtuux8m0nSfvLuhhywQ1BTkMsab7lk7DZRNCLZ9ZADdggK6LILS37YOuv8Wcdws7YoGFEJCeiAHYKCWPNM0viuuzcULjtgh6BAkMvg2wvOBScSJAdLaVPVenMBOwRpFoDLW+YHcrZRzFlV190F7BCkiVSp5RkrdpGYn1uhhhywQ9BRLbpjrOG66xpYdMAOQQvN0d39a04iKA6FfI4O2CFoQdhV1N2K7ZBgFDQBHbBDUP08fXbCuLA4Z9ErgB2CdLXqdmy7e2CVgEMj0AE7BFVhl7vWyIX/fkhy3QE7BDULenW+DtghSFPY5XIbKwfYIQiwA3YIAuyAHYIAO2CHIMAO2CEIsAN2CALsgB2CADtghyDADtghCLBDEGAH7BAE2AE7BC0tpsu8MbeRBbADdkgHJRLHrUtMH5+gW//T117rvI+fl+ADdsAOhVUeyDVwn9x/3fjpdHtizd+tSxwP2AE7FEIXnS023+uLOyv6R9Jf6B9xnu4fSb1O463+4dTBgZHUo/Tcjevi08s92KcBO2CHQjgP7+mPpz5FUGeHxh5xN2yZcgdHd7kDozvdwc273auv3+tupOcZ/vXDqfXzeQCAHbBDXck4AS7n4gTwXUPbHnMH4pNu34hToMclGmUCvyJuvcezCvqBeHorv27t2L0nAHbADoUAcnLLvznkWeuChNo9ymDgK1dfv4/uT44BdsAOhQ7ydGURyNUoe7DvBeyAHQqZJXcDDsAO2CHNIQfsgB2KCOSAHbBDEYEcsAN2KCKQA3bADkUEcsAO2KGIQA7YATsUEcgBO2CHIgI5YAfsUEQgB+yAHYoI5IAdsEMRgRywA3YoIpADdsAORQRywN4C7DnbeFZB7gB2QN7lkAP21iz7Mwpy122tKi8EyAF7Fw6y6Hl3P3+vmAUXHpC7IRuAPdgosGXPWLEB/p7TiZ7jAQMgB+z6wV5095huzjKegFUH5IBdX9gredtg0A/POKtXAAhADtj1hb1cnjR5rn4poADkgF1f2EvuLnLfndjlAAOQA3Z9Ya8UUqabGe9dCzgAOWDXE3aCXNz+4m3nnNMACCAH7HrCLpbX6Dsk5ffC8hogB+yawV5RgbhMcuWHsLwGyAG7jrAnyZofoGSZpHG7+C7TsOaAHLDrBnuBjzNnm9+u/w4QIAfsesDuQW6Z3xHH3tOzDBtaADlg1wv2WsgJcFhzQA7Y9YIdkANywK457IAckGNoDjsg14jyZQJ0QA7YAbnGgiUH7IBcb117rSOymfrjqb8f2vYoIAfsgFw3rVuXENlM/SNO/8at+/kELfIJClAjDTsg11BiXt43kvrJhi0P0wmZLgLQSMMOyLV12UdTHx7cvIdPyhLAjDTsgFxLtz0xLdz2vmHncxvHDmBuHm3YAbnuoJO7fs/GrQT6cApuezRhB+QAHUNz2AE5XHeMpYJd/V+0AntmDvZZWRTi6EUjkoAcwTiMJYJ9nzsQT2/1ljrbAvv33QOrRAlmad3LWVtC7916z9N9r2iE3E8OyLG8htF5y75+OLXegz3ROux2bHsxbbpcy62UFl1UhAXnW37s7u11Zx3DzSVjt4nX0jmQAOSau+9ImDnWozS4eTffvr4uPr1cYttUEQdhlWUBiNkJ40J25QnwQ1x3XYBtG0W6fzCTNL572DrrfHWBQNGIqLnwSIE9VmN2o9hf4NzYyny9Cryvdpu7f81JecdYM2PFLspb5gdecC44cb6/g6IibGo5hiNdZPedpk+P+i+8rYh7li8EMj9PVhyuejSFbarHcq4u3Pfh1EGC/ER/7KTl/9UeL8gmwGc3vQduOoTCE8dmDKcqA6M7+f5b/deNn97KPB2CAHs3W/TRXSIgRxb9ZIAOAXZNI+8btkxxMO5pL1ySwPwZAuy6jb4Rp+D9vukvtCPqDkGAvQvd9oH4JEOe6Ys7K/wrIBAE2PVYVuPEpMLQtsdcymH4FKw5BNj1HNJlT93Fv2071s8hCLB3IeT8W85F2RFphwC7vpCL3xSQQ4Bdb8hdQA4B9oVGhTPK5FbP+lGRgS5ADkEhgb0iCmJwmSuv1FWJIeYlKc4m4xzxDVQ0g8egGLtdkU4aT6v93up1RfkYkENaaxlHdXn5hiuZiEH3W4r0dg72soKTqq+4XBCD98pzuSve5eWtO6cyNH5O45WB4dSLdPs/dAH4Kd3+L92+yVs/+UKwces+73V06+37Tle8904v5b57QA51Xo2UKGoa+PbBXlEW2wPUg5Me52g8T2Du6BtJ/yWB33fVcPrCaz45edaGzff9Sk1hRTqW9Z/Zf9LG+K5fvSqeXD0w7FxCr/mTgXgqQevUu8VFgS4S3gVjn3fBqHoJgBwKuRX3zi/3OIZkYDj9d3TyPUTjQTr5t/cPT14W5ILQAdjZnS4IAMlqX339FKWEpg8R2N8jUP94/ScmjXb9GHxRoOyz36L3/TQd53763BkP+imfF9HWuT0ghzo+iZ6Dj4Chk+5ldnv5xBZusHSFvTpxqf+ik/FjS2rZvUBaQVhv728z4gI0mr6SrXL9dxFTDjHtSBzPFy3fktSyI743Dd4YIqYqR5miXEleAW0kGaNjeYbdellKq11lrwE5tASBMnlSUdWSOxloWZesKOCbC2wVvJ1TD4u5L1n4m32WfVlnYPfSPjlgJktMv0HH+EWGrma6IWMJbc77XsYXifnAF27+sDPOxyeAFxeipgtlAnJoiaPhXANu8XmoiEhL8D7bQdj5GCryc97izxocmzrFD7cEcGmgoOPkz/RvC73qk865PK1hT0O69AXpfQByqEshr0LWwLzTO5lLbM24oUPbYY+n8+w5sCXn5zhg5p87H+sdW2pFQj0ejFsX8/5wvij5gnaAHOpWyIOvWbcbdt608fEbn2S3/d8JnrU1gHdZ6qdy7asufTx9Ax1/3ive6BQAORR2yDsDuwJmdPJPx8aeO6EKeJdDwBZeufR9102u4oCdDBqWBo5MvAHkUKggbz/sdbuywrYVU12cpGfyD3Jt39++CpBDoYS8A7CrjjDhBMC7OFVLYQ+LOENcVG3NA3IozJB3BPaQ/+DLVBZe/7B9GWfsXXPjE9WiEYAcCivkXQs79woTDQlkN5KakaAhmxV04hhVgwXOKKRA3der0xNADoUY8q6AncGeTkiQAzYEdBPVC0Dblu9qO56iMgykB+THDHZ3gf5h7zrGGdwtNO8YV+Us4xN5yxjLJGM3zFjmaMY2N2at2KXZyZhRDzf3G2vmYjGfVIotTkpIJ8gXg739gPuaALoPrTk1Y68czFrGt2j8W8Yy3uY2wO5urwc49/sWg+/v6XXLkyb3A89lk8bPsknTzluxbdxJtOYzGHj0IYMAeQOwxz3Y2+W6iiaABLl6zJY5Zxv3EbT/5+4xPZh3mW4hZTDIFe77TaPoH7IHeDlvG26FgHcf9i4C8m+nqX3wMLcS9gOPEwwC5Auny5a9NWWvu0irbYSeu3dtdb06lzTWZW3jSQEqWelCynR9UJck5O4io0IWvey7CLjiYjEloD+UnYjdrC4qYh7vwrpDgHzeNkIe6M7jrYCuAm3Cgj8UMwjCSbbaDKUP1EbAPvqw5zyAUtrzDuj9X87bvYPqWNRxQBAgr2kjlHp3/ajzG82C7p+HzyRjcQqsZaXFLWU9F9zt0OALSEG59nT/gZe+5bnzrs+zgKAoQy6OhXd19Q2ntvEx1pRzChBwq7rqlvE9trAcYGMAOwh4/RAWvmrdnZXnAnYIkNe0+E39uHq8TULuOhecSKD9wN3XqwAvLyHk/jHL0wWCvcDxAcAORR3yOdCHJ6/g4wy6vKYgf80xTibAnpeu+uwxAtw/ihz0K9KYmTCuAuxQhCFPF8W+7OHUk3ycQRNG/AksBNYPuwjyqivP0wcxhUiu/HD9agAERcGSz2PNE8GsuQy+ZS3Tke56N0EuBq/Dc1Se4gaHCXazPp4AQRGA/OG5uXnAKLtyg7O2+VmGPNeFkPtGgZf3MknjP3wXKayzQ9pDLmqmcVOFgU32VmHNE43PzZVFnBmP/bbIavPWtFtZG6+w5c1ZZkFlwsnhz5QrtxygowtS3jLuhAsPRQNySnuV6+bvXLnFOUN+gWWNf1XPGhLgP+L8dJWp1hTgZG05vZVz2kVKLN3yerhIglG571Nevru8CJRaSLAp8/tmnN61cOEh3SGX1lw0N5gIGmlXueTkBm+ROeeF5qPihspbzxLw+2fs2Oczlnn1e/bKP6Clsd/LO71/xDvZZH78QXExmLuwNONBFEWGnm08VR9MhCC9IJd13zndlVolfTwI6Gp3GMNO0LwidpUlA7vUFQEcWemMZbyTS8ZuyyTNlYt+9nNrT+CLgIrusxfQpHUXsGdso4/fF2mykK6QV+rTXRtNklHWPGebm+VSWqEJyMvea2NJ3ofun/fz+0+rijJ1FWf8x8FWniGvTAafNrD7L/Pun/KvHECQTpCLaLvXqjj42nl1bk57yEXmWTCLKgJ2wvW2zVv8lroRF5q9CVlkQvzt7ETvBVnL/Lm7s6kYAebqkNaQV/PaKVnmy0Gi7QqGAsFRTJtuE1HwEs+x6fbTyjtodo7MqbbCs3BW9tJ8+81SOvBFp+DFBsy7/J4KBOkCedWi03bUfm9+3liSTDUIZ8W+EjQIx5F16erfI96LlrZarQajYOdiFrJwhRsgQFeWbv9LykNAdRpII8i5Z1va6zu2efIc/h6NbketWVIL4LbneC7tudc/rX+vlv87lGW3Y9ubWAGocB58ZhzuO6SXJRf7zrmrKEXbD62L71guv9ii0CkXm6PjBEhGRrwrDa5fF9llp3zzIWXN2/df4l0wXt2xejl91uulAFOKnHLfk8ZfwH2HdILcvyX12UDWXFq7vL3yikBBOFp642AZRbpf6JR7rC4cOdv8IoOba9yqF+V04gGADukEuVg/l4kyqWbm5wTFZ6SLXAwS9MoljQS/vhNpp8rb4CITdVlwiwcHvT3rP2rndAIC5N2REcf9wUdS/xQo4q5At81/DAS6suhJ8w+XYh6csYz/Fp/XmMdRlq7+IZdcf8AOyPWAvBb0O5oC3TLGpbvbCOgVWUrq8MzE2Wd2EiRXFaO0YlbQ48tZ5ruHHzjz/QAdkOsBuQ/0vnj61kCgS0tMFnNKFF9srNBjWTZeOFgt1NihJaw5j8P4RgCPg3fMiV1t7yRXrPZPAyBArgXodPs3zYDOG09E0ksjoJPbXvECcS922lLOpeYaiYZBt6ugF/PjvecAdECuB+RtAD0Liw4B8lCB/iXM0TFHB+Q6Qu4HfST1DUTdZdQ9abyGqDsg1w90sY6e3iFAXxcQdMoia2od3TZu59d3ch39PV5HV+vnja6j78Y6OiDXcnjlnfvj6Uf4Oze6RbXVzDiytB3PjMsgMw4C5Go45Q2b9/D9F5qxmpzrTtY5UK57Tua6E/RD7bbqygpz22TkukOAvK66TN9I6peDfzbx6/LHWBYEqkzAohNLsnvNMr4c0JrP7V5D8QltKY8q5DU72AaGnUsCue/V/ejmV5rYEurtR7eNbyp3u2370amIpIzuB96PTt7GS9W+cdiPrhnk0oJFFPJqPff+kcmxQJF3lR2XNH+3lQozedv8c3XhaLXCDHdeySSNpivMzFjG3XDbNZTalkkpoHdHEnJf5J3c9/uDRN79LnfLNeMs86+q70k14xLN1Ixzen+T1s1bqxlHFy247ZpJndB9cefWoW2P8Yle8CquRAx0CsgNbt7NwL+USLgKsEBVYEVN91aqwD4sgmATvxzvPd3vMTRaBZY+fyvD3UwVWM+zQBVYTS25d0L3b9n5wYHRnSIoRSd6BCH3BeXodxgctX4n0Dxd1XWnOTaBcrANdd3fnpmgpg0Prjprsc/maD1Z4A00z3+29bru/NmxAX5f1HXX0ZqTu8rz074ouuzzVoJ1/pZ/l7Vj9za85FXdQNLeTi0ZipjvoznzrQJmJ/b72XHjkrzdewUFzLaSBadOLbFX29apxTJ+4F82hLQJwPX0DI5NnUIn+BsccebIc8RB9zqpDjv/GWSJbd65ejt6rzmGy+686r1W7nTvNczNNXbbN+08v7YaaqRB95bZaK4+GJ+8NIj77gdkxmlfN1W5I06BXJbv1/ZuqnT7dTUVAB0aSZ3AdEJfLKx5tOfmR7ZNHkn9c5BltirsEpSZCeOvQ9Mf3TKer/dKIM0s+mA8fd6cJYdF97LkRI33w31bJlf5lx8DuPDi78kap6S17EbYS3KX2gx3doHLrvkcfV18ejmd3K9jjl4zZq+54Qm3b5OzyR+0bPiX9QWzCKh/lUtu3QR7ibPmROYctWKGy6571F26pWS97hM100acAiBPFThpiPIK7pbmuSlXtppC6hgnU3T8J10Eu4jqcxZf3jLW+6cbkObu+1WbnXP72V2VwaioQ85pwPWeT0uwe7vI/kW68YU2BNCaD7ztEgUoCjk7dhkgj6BVHxhO3zS07VGv/9hIJANztZDzvNx1Ww5M+ee9vO7NS2V5b7NJYSlddbFW7u1ke3l2YuV5gDzCEfj+eGr7RpHrno4a7B2BXMnxwT5jmaMEXU668qUGC0o2O9hzKHBKrEyvfZC9C0AeXS1Tbjxlx90RMdg7Crl/2UqllWYnYwYBvpPdaJlfXm4hq22+BBhhwUVyjZdh90rGMq/2BQuR3hrlKLyy7BGCfUkgr/mVfZb08ETscoJwWlhcsvAcJMvVJshUGt0Q40ugqWbOEfSv8Y44lZ7LgGOdHIoa7EsOuX/5zT935xz2TDK2gyD9hchb55RXsvYiu+7ITDhveBeEMm9iUa65LAFVpn97ioJtI6/KKq7iM7G3HIog7McM8vpAnX876NvOOaeJzSuWcQ+NH2cs4x1e667mtu+VY2ou953+Lk8Btp+R5XYyVuxGCvStqfkM3s6KKjFQBGHvCsiPAH4ei/ve/bFfm7FiF/F6dy4Z20QgbyPLf0PONjfTBWBI7GajajL1e8eFxzANNx2KLuxdB/l8AbtmIHXV67DFFIo47F0N+ULgO3UVZapDVZxh6w3XHALs4YQcggA7IIcgwA7IISg6sANyCNIcdkAOQZrDDsihCKPJHT3ql2layn3uStgBORRhyBfZrdR8mmRXwQ7IoQhD7ts8kXOMj2Yt43M07swlzS9lbHPjWw+tOdV3QTgupLADciiigJNLrsDNJo0hgvtFsf95r29zBLfgoa6bOTv2+fkuDCGBHZBDgJys9lcF1F53zVLOMrmEUVHdivY/B1YR8LHHqj3EwgM7IIciDLmqK07dN2RBwqO17OGiBXnxd7bXSTMksANyCJDXQV5pqEIoFw8MB+yAHALkTUAeJtgBOQTIW4A8DLADcgiQtwHyboYdkEOAvI2QdyPsgBwC5B2AvPOwU0eYgcXbP1X6ADkEyDsKeQ3svPRWXWdvMYOOO8KI9k8EM4Ps9Xuradlcls9XhrY9Rg0P03cDcigccMrKnNNztb7ExpJEQGiWGPI52Pf1iqQa36E0lRuvOsJwrzfuQ85dXGXLZrbyAnZ+vHHrAXdgdCd3Nb1VvbaVhocQ1HnIpxffVNLFkKuR5ww6lS7bQkOAqmXfwF1cqWUz92dXgEuL/gZZ9Pv7t+z8oGfIyZIDcqhrAe/xpaImzZVZ27yF8s5TOct8PJs07awVu/nwA2e+X819j7aD7BhDLjLoOF2Wc+PfeuiMU9UxNfvbqC6u4n58evlgPH3eYHzy4v5NO88fHJs6pfpv66bRYQTq/rm0BPMmYRE555xb5+zxtdCxjEzGjt0g//64+eDpAsjVKIqNMLTrTU5HWoKQ3Xg/8DUXAgJcufkQ1L2Qy+g0WfKvuY+wy2twX6yCL++8yI9Fy539DE9se9Wy+2DvIsi5t3ZBROFpi2uL7vu8c3d26T244aZDIYKcW+nIPthFuXlkoU0lokk9Bbvu8Lvx3QR51aJ7Xsid7QUdgsIIupyXkwV8hhvkqXa2R219a9fBPu1F57sI8qpF5+IVAB2CGHJn1dkMhq85vdso7BTZvkO9T75LIJejxMUruFKN33OBoOiCPmF8lIs95BbeB75QU/sSz9mpe+ZtuaSR4PtdA7lXvOLFqueCnl9Q5EG3zY80AbqCvcyvlWCVG/QIOjkq1fk5laWS0xO47RCUS65YTXAUcnOgNAxWxhIR+rIYxxbwOcj3iWW1r8Jlh6C6YBwlxDzdYDCuW0cVcg4I+r8bBAF0afFmxs0rOTFGrptXdIC8lWw4CNIWdl4u66KAWvOQu4AcghZx4btqiQyQQ1BbQfc3UQgH7IAcgpqG3Q0F7IAcgjSHHZBDkOawA3II0hx2QA5BmsMOyCFIc9gBOQRpDjsghyDNYQfkEKQ57IAcgrSG3QbkEBQF2Mu8sSYPyCFIW9hFCSguSyU+o66cNARBesAuQY/dJt6fq8ui1hsE6QV7zpY16PbPVZeFVYcgPS27V122vkkEYIcgDWGvbxLBQTm48RCkMey+Xm/4lSFITze+KBs7el1c0VoJgrSEvcxdXLlls+rPnkAZZwjSEPakapgYuxlWHYL0hb0oas4nTVu8L1osQZCWsJfcPdwbznxcvCeCchCkJezSohspfo9pWHQI0hB2NUe3zVswR4cgPWEv52yDb/OZpLlSztERdYegUMG+v9rYsVjTW13uSxdu+yOr+LmbYM0hKGywS6ssGjvS/JtbNud8vdb5Pj/nTnEarPk1WHIICjns3LKZ+7OT1S7wNlWxVZXu0+NnMpaxvvr3yHWHoJAC71sqyyVXrM7Z5kdyE8ZHc86qs+f7GwiCQgz7fG45PwfIIah1/T93JlhvXQtrgAAAAABJRU5ErkJggg==;" parent="1" vertex="1">
                    <mxGeometry x="341" y="680" width="70" height="70" as="geometry"/>
                </mxCell>
                <mxCell id="54" style="edgeStyle=none;entryX=-0.051;entryY=0.568;entryDx=0;entryDy=0;entryPerimeter=0;" edge="1" parent="1" source="34" target="53">
                    <mxGeometry relative="1" as="geometry"/>
                </mxCell>
                <mxCell id="34" value="App insights" style="aspect=fixed;points=[];align=center;image;fontSize=12;image=img/lib/azure2/devops/Application_Insights.svg;" vertex="1" parent="1">
                    <mxGeometry x="355.5" y="540" width="44" height="63" as="geometry"/>
                </mxCell>
                <mxCell id="44" style="edgeStyle=none;entryX=0;entryY=0.75;entryDx=0;entryDy=0;dashed=1;" edge="1" parent="1" source="38" target="20">
                    <mxGeometry relative="1" as="geometry">
                        <Array as="points">
                            <mxPoint x="74" y="720"/>
                        </Array>
                    </mxGeometry>
                </mxCell>
                <mxCell id="45" value="OTLP" style="edgeLabel;align=center;verticalAlign=middle;resizable=0;points=[];" vertex="1" connectable="0" parent="44">
                    <mxGeometry x="-0.11" y="1" relative="1" as="geometry">
                        <mxPoint as="offset"/>
                    </mxGeometry>
                </mxCell>
                <mxCell id="38" value="Interest Api (GO)&lt;br&gt;Otel exporter" style="aspect=fixed;html=1;points=[];align=center;image;fontSize=12;image=img/lib/azure2/other/Worker_Container_App.svg;" vertex="1" parent="1">
                    <mxGeometry x="40" y="540" width="68" height="66" as="geometry"/>
                </mxCell>
                <mxCell id="43" value="OTLP" style="edgeStyle=none;entryX=0;entryY=0.5;entryDx=0;entryDy=0;dashed=1;" edge="1" parent="1" source="39" target="20">
                    <mxGeometry relative="1" as="geometry">
                        <Array as="points">
                            <mxPoint x="194" y="700"/>
                        </Array>
                    </mxGeometry>
                </mxCell>
                <mxCell id="39" value="Currency Api (JAVA)&lt;br&gt;OTel Agent" style="aspect=fixed;html=1;points=[];align=center;image;fontSize=12;image=img/lib/azure2/other/Worker_Container_App.svg;" vertex="1" parent="1">
                    <mxGeometry x="160" y="540" width="68" height="66" as="geometry"/>
                </mxCell>
                <mxCell id="50" style="edgeStyle=none;entryX=-0.002;entryY=0.379;entryDx=0;entryDy=0;entryPerimeter=0;" edge="1" parent="1" source="49" target="2">
                    <mxGeometry relative="1" as="geometry"/>
                </mxCell>
                <mxCell id="51" value="REST" style="edgeLabel;align=center;verticalAlign=middle;resizable=0;points=[];" vertex="1" connectable="0" parent="50">
                    <mxGeometry x="-0.31" y="3" relative="1" as="geometry">
                        <mxPoint as="offset"/>
                    </mxGeometry>
                </mxCell>
                <mxCell id="49" value="" style="sketch=0;aspect=fixed;points=[];align=center;image;fontSize=12;image=img/lib/mscae/Person.svg;" vertex="1" parent="1">
                    <mxGeometry x="-130" y="350" width="37" height="50" as="geometry"/>
                </mxCell>
                <mxCell id="52" value="Cloud events" style="text;align=center;verticalAlign=middle;resizable=0;points=[];autosize=1;strokeColor=none;fillColor=none;" vertex="1" parent="1">
                    <mxGeometry x="331" y="426.3" width="90" height="30" as="geometry"/>
                </mxCell>
                <mxCell id="53" value="Azure Managed Grafana" style="aspect=fixed;points=[];align=center;image;fontSize=12;image=img/lib/azure2/other/Grafana.svg;" vertex="1" parent="1">
                    <mxGeometry x="540" y="540" width="68" height="52.800000000000004" as="geometry"/>
                </mxCell>
            </root>
        </mxGraphModel>
    </diagram>
</mxfile>